solid Visualization Toolkit generated SLA File
 facet normal -1 -0 0
  outer loop
   vertex 0 0 0.5
   vertex 0 1.5 0.5
   vertex 0 0 0
  endloop
 endfacet
 facet normal -1 0 -0
  outer loop
   vertex 0 0 0
   vertex 0 1.5 0.5
   vertex 0 1.5 0
  endloop
 endfacet
 facet normal 0 -1 0
  outer loop
   vertex 0.30000001192092896 0 0.5
   vertex 0 0 0.5
   vertex 0.30000001192092896 0 0
  endloop
 endfacet
 facet normal 0 -1 0
  outer loop
   vertex 0.30000001192092896 0 0
   vertex 0 0 0.5
   vertex 0 0 0
  endloop
 endfacet
 facet normal 1 -0 0
  outer loop
   vertex 0.30000001192092896 1.5 0.5
   vertex 0.30000001192092896 0 0.5
   vertex 0.30000001192092896 1.5 0
  endloop
 endfacet
 facet normal 1 0 0
  outer loop
   vertex 0.30000001192092896 1.5 0
   vertex 0.30000001192092896 0 0.5
   vertex 0.30000001192092896 0 0
  endloop
 endfacet
 facet normal 0 1 0
  outer loop
   vertex 0 1.5 0.5
   vertex 0.30000001192092896 1.5 0.5
   vertex 0 1.5 0
  endloop
 endfacet
 facet normal 0 1 0
  outer loop
   vertex 0 1.5 0
   vertex 0.30000001192092896 1.5 0.5
   vertex 0.30000001192092896 1.5 0
  endloop
 endfacet
 facet normal 0 0 1
  outer loop
   vertex 0.30000001192092896 0 0.5
   vertex 0.30000001192092896 1.5 0.5
   vertex 0 0 0.5
  endloop
 endfacet
 facet normal 0 0 1
  outer loop
   vertex 0 0 0.5
   vertex 0.30000001192092896 1.5 0.5
   vertex 0 1.5 0.5
  endloop
 endfacet
 facet normal 0 0 -1
  outer loop
   vertex 0.30000001192092896 1.5 0
   vertex 0.30000001192092896 0 0
   vertex 0 1.5 0
  endloop
 endfacet
 facet normal 0 0 -1
  outer loop
   vertex 0 1.5 0
   vertex 0.30000001192092896 0 0
   vertex 0 0 0
  endloop
 endfacet
endsolid
